<svg id="Layer_1" data-name="Layer 1" xmlns="http://www.w3.org/2000/svg" viewBox="0 0 42 42"><defs><style>.cls-1{fill:#66c087;}</style></defs><title>Website Design Assets</title><path class="cls-1" d="M13.2,42c-.2-1.79-.39-3.59-.6-5.38s-.45-3.89-.67-5.83q-.39-3.25-.76-6.49c-.23-2-.44-3.92-.68-5.88-.05-.38.08-.47.47-.47H24.11c1.73,0,3.47,0,5.2,0,.39,0,.52.09.47.47-.25,2-.47,4-.7,6s-.43,3.78-.65,5.66-.46,3.86-.68,5.79-.45,4.11-.68,6.17Zm3.61-20.07c-.34,0-.68,0-1,0s-.45.13-.43.45c.16,1.85.3,3.71.45,5.56.26,3.25.53,6.5.78,9.75,0,.32.16.39.47.39.6,0,1.21,0,1.82,0s.64,0,.6-.61c-.24-2.81-.47-5.61-.69-8.42q-.27-3.36-.53-6.72c0-.28-.12-.4-.43-.38S17.15,21.93,16.81,21.93Z"/><path class="cls-1" d="M28.49,0c.38.71.61,1.47.92,2.21.12.3-.13.33-.31.4-1.64.63-3.29,1.24-4.93,1.86l-1.62.61a1.31,1.31,0,0,0-1,1.47c0,1.18,0,2.37,0,3.55,0,.41-.14.53-.54.52-.59,0-1.18,0-1.77,0-.3,0-.44-.08-.43-.39,0-1.43-.07-2.87,0-4.3a3.6,3.6,0,0,1,2.48-3.25C23.49,1.81,25.73,1,28,.15L28.32,0Z"/><path class="cls-1" d="M20,16.4H9.58c-.62,0-.63,0-.46-1,.25-1.54.51-3.08.75-4.63.09-.56.25-.79.59-.78q9.59,0,19.17,0c.35,0,.51.22.6.78.24,1.58.51,3.14.77,4.71.15.94.14,1-.42,1Z"/></svg>