<svg id="Layer_1" data-name="Layer 1" xmlns="http://www.w3.org/2000/svg" viewBox="0 0 42 42"><defs><style>.cls-1{fill:#66c087;}.cls-2{fill:#fff;}</style></defs><title>Website Design Assets</title><rect class="cls-1" x="4.86" width="32.19" height="42" rx="4.28"/><rect class="cls-2" x="8.47" y="4.72" width="11.18" height="5.13"/><rect class="cls-2" x="8.47" y="11.84" width="24.96" height="0.6"/><rect class="cls-2" x="8.47" y="17.02" width="24.96" height="0.6"/><rect class="cls-2" x="8.47" y="13.7" width="11.57" height="2.06"/><rect class="cls-2" x="31.29" y="13.7" width="2.06" height="2.06"/><rect class="cls-2" x="8.47" y="22.21" width="24.96" height="0.6"/><rect class="cls-2" x="8.47" y="18.89" width="7.65" height="2.06"/><rect class="cls-2" x="28.23" y="18.94" width="5.12" height="1.95"/><rect class="cls-2" x="8.47" y="27.4" width="24.96" height="0.6"/><rect class="cls-2" x="8.47" y="24.08" width="15.82" height="2.06"/><rect class="cls-2" x="29.51" y="24.08" width="3.83" height="2.06"/><rect class="cls-2" x="8.47" y="32.59" width="24.96" height="0.6"/><rect class="cls-2" x="8.47" y="29.27" width="9.28" height="2.06"/><rect class="cls-2" x="28.23" y="29.27" width="5.12" height="2.06"/><rect class="cls-2" x="8.47" y="37.78" width="24.96" height="0.6"/><rect class="cls-2" x="8.47" y="34.45" width="12.48" height="2.06"/><rect class="cls-2" x="30.11" y="34.51" width="3.24" height="2.01"/></svg>