<svg id="Layer_1" data-name="Layer 1" xmlns="http://www.w3.org/2000/svg" viewBox="0 0 42 42"><defs><style>.cls-1{fill:#68bc7e;}</style></defs><title>Website Design Assets</title><path class="cls-1" d="M32.25,42H9.55a4.87,4.87,0,0,1-4.86-4.87V4.87A4.87,4.87,0,0,1,9.55,0h22.7a4.87,4.87,0,0,1,4.86,4.87V37.13A4.87,4.87,0,0,1,32.25,42ZM9.55,1A3.85,3.85,0,0,0,5.7,4.87V37.13A3.85,3.85,0,0,0,9.55,41h22.7a3.84,3.84,0,0,0,3.84-3.85V4.87A3.84,3.84,0,0,0,32.25,1Z"/><rect class="cls-1" x="8.72" y="5.12" width="10.91" height="5.01"/><rect class="cls-1" x="8.72" y="12.06" width="24.35" height="0.59"/><rect class="cls-1" x="8.72" y="17.12" width="24.35" height="0.59"/><rect class="cls-1" x="8.72" y="13.88" width="11.29" height="2.01"/><rect class="cls-1" x="30.98" y="13.88" width="2.01" height="2.01"/><rect class="cls-1" x="8.72" y="22.18" width="24.35" height="0.59"/><rect class="cls-1" x="8.72" y="18.94" width="7.46" height="2.01"/><rect class="cls-1" x="28" y="18.99" width="4.99" height="1.91"/><rect class="cls-1" x="8.72" y="27.24" width="24.35" height="0.59"/><rect class="cls-1" x="8.72" y="24" width="15.43" height="2.01"/><rect class="cls-1" x="29.25" y="24" width="3.74" height="2.01"/><rect class="cls-1" x="8.72" y="32.31" width="24.35" height="0.59"/><rect class="cls-1" x="8.72" y="29.06" width="9.05" height="2.01"/><rect class="cls-1" x="28" y="29.06" width="4.99" height="2.01"/><rect class="cls-1" x="8.72" y="37.37" width="24.35" height="0.59"/><rect class="cls-1" x="8.72" y="34.13" width="12.18" height="2.01"/><rect class="cls-1" x="29.83" y="34.18" width="3.16" height="1.96"/></svg>