<?xml version="1.0" encoding="UTF-8"?>
<svg width="776px" height="13px" viewBox="0 0 776 13" version="1.1" xmlns="http://www.w3.org/2000/svg" xmlns:xlink="http://www.w3.org/1999/xlink">
    <!-- Generator: Sketch 56.3 (81716) - https://sketch.com -->
    <title>Group</title>
    <desc>Created with Sketch.</desc>
    <g id="Page-1" stroke="none" stroke-width="1" fill="none" fill-rule="evenodd" stroke-linecap="round">
        <g id="TGS-Website-Design---Ver2" transform="translate(-97.000000, -386.000000)" stroke="#FFFFFE" stroke-width="2">
            <g id="Group-129" transform="translate(39.000000, 296.000000)">
                <g id="Group" transform="translate(0.818400, 91.476600)">
                    <path d="M58.5,0 L58.5,10.159" id="Stroke-97"></path>
                    <path d="M113.7529,0 L113.7529,10.159" id="Stroke-99"></path>
                    <path d="M169.0058,0 L169.0058,10.159" id="Stroke-101"></path>
                    <path d="M224.2587,0 L224.2587,10.159" id="Stroke-103"></path>
                    <path d="M279.5117,0 L279.5117,10.159" id="Stroke-105"></path>
                    <path d="M334.7646,0 L334.7646,10.159" id="Stroke-107"></path>
                    <path d="M390.0175,0 L390.0175,10.159" id="Stroke-109"></path>
                    <path d="M445.2705,0 L445.2705,10.159" id="Stroke-111"></path>
                    <path d="M500.5234,0 L500.5234,10.159" id="Stroke-113"></path>
                    <path d="M555.7763,0 L555.7763,10.159" id="Stroke-115"></path>
                    <path d="M611.0293,0 L611.0293,10.159" id="Stroke-117"></path>
                    <path d="M666.2822,0 L666.2822,10.159" id="Stroke-119"></path>
                    <path d="M721.5351,0 L721.5351,10.159" id="Stroke-121"></path>
                    <path d="M776.788,0 L776.788,10.159" id="Stroke-123"></path>
                    <path d="M832.041,0 L832.041,10.159" id="Stroke-125"></path>
                </g>
            </g>
        </g>
    </g>
</svg>