<?xml version="1.0" encoding="UTF-8"?>
<svg width="833px" height="13px" viewBox="0 0 833 13" version="1.1" xmlns="http://www.w3.org/2000/svg" xmlns:xlink="http://www.w3.org/1999/xlink">
    <!-- Generator: Sketch 56.3 (81716) - https://sketch.com -->
    <title>Group</title>
    <desc>Created with Sketch.</desc>
    <g id="Page-1" stroke="none" stroke-width="1" fill="none" fill-rule="evenodd">
        <g id="TGS-Website-Design---Ver2" transform="translate(-40.000000, -386.000000)">
            <g id="Group" transform="translate(40.818400, 387.476600)">
                <path d="M57.5,0 L57.5,10.159" id="Stroke-97" stroke="#FFFFFE" stroke-width="2" stroke-linecap="round"></path>
                <path d="M112.7529,0 L112.7529,10.159" id="Stroke-99" stroke="#FFFFFE" stroke-width="2" stroke-linecap="round"></path>
                <path d="M168.0058,0 L168.0058,10.159" id="Stroke-101" stroke="#FFFFFE" stroke-width="2" stroke-linecap="round"></path>
                <path d="M223.2587,0 L223.2587,10.159" id="Stroke-103" stroke="#FFFFFE" stroke-width="2" stroke-linecap="round"></path>
                <path d="M278.5117,0 L278.5117,10.159" id="Stroke-105" stroke="#FFFFFE" stroke-width="2" stroke-linecap="round"></path>
                <path d="M333.7646,0 L333.7646,10.159" id="Stroke-107" stroke="#FFFFFE" stroke-width="2" stroke-linecap="round"></path>
                <path d="M389.0175,0 L389.0175,10.159" id="Stroke-109" stroke="#FFFFFE" stroke-width="2" stroke-linecap="round"></path>
                <path d="M444.2705,0 L444.2705,10.159" id="Stroke-111" stroke="#FFFFFE" stroke-width="2" stroke-linecap="round"></path>
                <path d="M499.5234,0 L499.5234,10.159" id="Stroke-113" stroke="#FFFFFE" stroke-width="2" stroke-linecap="round"></path>
                <path d="M554.7763,0 L554.7763,10.159" id="Stroke-115" stroke="#FFFFFE" stroke-width="2" stroke-linecap="round"></path>
                <path d="M610.0293,0 L610.0293,10.159" id="Stroke-117" stroke="#FFFFFE" stroke-width="2" stroke-linecap="round"></path>
                <path d="M665.2822,0 L665.2822,10.159" id="Stroke-119" stroke="#FFFFFE" stroke-width="2" stroke-linecap="round"></path>
                <path d="M720.5351,0 L720.5351,10.159" id="Stroke-121" stroke="#FFFFFE" stroke-width="2" stroke-linecap="round"></path>
                <path d="M775.788,0 L775.788,10.159" id="Stroke-123" stroke="#FFFFFE" stroke-width="2" stroke-linecap="round"></path>
                <path d="M831.041,0 L831.041,10.159" id="Stroke-125" stroke="#FFFFFE" stroke-width="2" stroke-linecap="round"></path>
                <rect id="Rectangle" fill-opacity="0.1" fill="#D8D8D8" x="0.0316" y="4.7734" width="1" height="1"></rect>
            </g>
        </g>
    </g>
</svg>